<svg width="100%" height="100%" viewBox="0 0 20 21" fill="none" xmlns="http://www.w3.org/2000/svg">
<path fill-rule="evenodd" clip-rule="evenodd" d="M10.1353 3.10865C10.0491 3.07031 9.95065 3.07031 9.86443 3.10865C9.86244 3.1096 9.81681 3.13294 9.71103 3.28229C9.60184 3.43643 9.47302 3.65795 9.27868 3.99363L2.4246 15.8325C2.22958 16.1693 2.10111 16.3922 2.0215 16.5643C1.94078 16.7388 1.94728 16.787 1.94703 16.7846C1.95683 16.8786 2.00607 16.964 2.0825 17.0196C2.0825 17.0196 2.1268 17.0487 2.31047 17.0655C2.49928 17.0828 2.75655 17.0833 3.14579 17.0833H16.8539C17.2432 17.0833 17.5004 17.0828 17.6893 17.0655C17.8807 17.048 17.9191 17.0182 17.9172 17.0196C17.9936 16.964 18.0429 16.8786 18.0527 16.7846C18.0524 16.787 18.059 16.7388 17.9782 16.5643C17.8986 16.3922 17.7701 16.1693 17.5751 15.8325L10.7211 3.99363C10.5267 3.65795 10.3979 3.43643 10.2887 3.28229C10.1781 3.12608 10.1332 3.10772 10.1353 3.10865ZM10.5416 2.19491C10.7908 2.30571 10.9642 2.50587 11.1047 2.70428C11.2437 2.90045 11.3953 3.16244 11.5746 3.47213L18.4524 15.352C18.6324 15.6628 18.7846 15.9256 18.8858 16.1444C18.9881 16.3657 19.0756 16.6164 19.0473 16.8883C19.0081 17.2643 18.8111 17.6061 18.5053 17.8284C18.2842 17.9892 18.0233 18.0391 17.7806 18.0613C17.5405 18.0834 17.2368 18.0834 16.8776 18.0833H3.12214C2.76295 18.0834 2.45921 18.0834 2.21911 18.0613C1.97639 18.0391 1.71554 17.9892 1.49447 17.8284C1.18866 17.6061 0.991631 17.2643 0.952424 16.8883C0.924081 16.6164 1.01158 16.3657 1.11392 16.1444C1.21515 15.9256 1.36734 15.6628 1.54731 15.3519L8.4251 3.47212C8.60438 3.16243 8.75605 2.90045 8.89499 2.70428C9.03553 2.50587 9.20895 2.30571 9.45813 2.19491C9.80301 2.04156 10.1967 2.04156 10.5416 2.19491ZM9.99986 7.50001C10.276 7.50001 10.4999 7.72387 10.4999 8.00001V11.3333C10.4999 11.6095 10.276 11.8333 9.99986 11.8333C9.72372 11.8333 9.49986 11.6095 9.49986 11.3333V8.00001C9.49986 7.72387 9.72372 7.50001 9.99986 7.50001ZM9.49986 14.6667C9.49986 14.3905 9.72372 14.1667 9.99986 14.1667H10.0082C10.2843 14.1667 10.5082 14.3905 10.5082 14.6667C10.5082 14.9428 10.2843 15.1667 10.0082 15.1667H9.99986C9.72372 15.1667 9.49986 14.9428 9.49986 14.6667Z" fill="current"/>
</svg>
