<svg width="100%" height="100%" viewBox="0 0 20 21" fill="none" xmlns="http://www.w3.org/2000/svg">
<path fill-rule="evenodd" clip-rule="evenodd" d="M5.4797 5.97976C5.67496 5.7845 5.99154 5.7845 6.18681 5.97976L9.99992 9.79287L13.813 5.97976C14.0083 5.7845 14.3249 5.7845 14.5201 5.97976C14.7154 6.17502 14.7154 6.4916 14.5201 6.68687L10.707 10.5L14.5201 14.3131C14.7154 14.5084 14.7154 14.8249 14.5201 15.0202C14.3249 15.2155 14.0083 15.2155 13.813 15.0202L9.99992 11.2071L6.18681 15.0202C5.99154 15.2155 5.67496 15.2155 5.4797 15.0202C5.28444 14.8249 5.28444 14.5084 5.4797 14.3131L9.29281 10.5L5.4797 6.68687C5.28444 6.4916 5.28444 6.17502 5.4797 5.97976Z" fill="current"/>
</svg>
