<svg width="100%" height="100%" viewBox="0 0 20 21" fill="none" xmlns="http://www.w3.org/2000/svg">
<path fill-rule="evenodd" clip-rule="evenodd" d="M10.0001 2.66669C5.67385 2.66669 2.16675 6.17379 2.16675 10.5C2.16675 14.8263 5.67385 18.3334 10.0001 18.3334C14.3263 18.3334 17.8334 14.8263 17.8334 10.5C17.8334 6.17379 14.3263 2.66669 10.0001 2.66669ZM1.16675 10.5C1.16675 5.6215 5.12157 1.66669 10.0001 1.66669C14.8786 1.66669 18.8334 5.6215 18.8334 10.5C18.8334 15.3785 14.8786 19.3334 10.0001 19.3334C5.12157 19.3334 1.16675 15.3785 1.16675 10.5ZM10.0001 5.00002C10.2762 5.00002 10.5001 5.22388 10.5001 5.50002V10.191L13.557 11.7195C13.804 11.843 13.9041 12.1433 13.7806 12.3903C13.6571 12.6373 13.3568 12.7374 13.1098 12.6139L9.77647 10.9472C9.60708 10.8625 9.50008 10.6894 9.50008 10.5V5.50002C9.50008 5.22388 9.72394 5.00002 10.0001 5.00002Z" fill="current"/>
</svg>
