<svg width="100%" height="100%" viewBox="0 0 20 21" fill="none" xmlns="http://www.w3.org/2000/svg">
<path fill-rule="evenodd" clip-rule="evenodd" d="M11.1668 2.16669C11.1668 1.89054 11.3906 1.66669 11.6668 1.66669H13.3334C13.6095 1.66669 13.8334 1.89054 13.8334 2.16669C13.8334 2.44283 13.6095 2.66669 13.3334 2.66669H11.6668C11.3906 2.66669 11.1668 2.44283 11.1668 2.16669ZM9.25003 2.16224C9.25378 2.43836 9.03297 2.66523 8.75686 2.66897C8.18491 2.67672 7.9597 2.71439 7.80376 2.79385C7.58424 2.9057 7.40576 3.08418 7.29391 3.3037C7.21445 3.45964 7.17678 3.68484 7.16903 4.2568C7.16529 4.53291 6.93842 4.75372 6.6623 4.74997C6.38619 4.74623 6.16538 4.51936 6.16912 4.24324C6.17662 3.69011 6.20409 3.2399 6.4029 2.84971C6.61063 2.44202 6.94208 2.11057 7.34977 1.90284C7.73996 1.70403 8.19017 1.67656 8.74331 1.66906C9.01942 1.66532 9.24629 1.88612 9.25003 2.16224ZM15.7501 2.16224C15.7539 1.88612 15.9807 1.66532 16.2569 1.66906C16.81 1.67656 17.2602 1.70403 17.6504 1.90284C18.0581 2.11057 18.3895 2.44202 18.5973 2.84971C18.7961 3.23989 18.8235 3.69011 18.831 4.24323C18.8348 4.51935 18.614 4.74622 18.3379 4.74996C18.0617 4.75371 17.8349 4.5329 17.8311 4.25679C17.8234 3.68484 17.7857 3.45964 17.7063 3.3037C17.5944 3.08417 17.4159 2.9057 17.1964 2.79385C17.0405 2.71439 16.8153 2.67672 16.2433 2.66897C15.9672 2.66523 15.7464 2.43836 15.7501 2.16224ZM18.3334 6.66668C18.6096 6.66668 18.8334 6.89054 18.8334 7.16668V8.83335C18.8334 9.10949 18.6096 9.33335 18.3334 9.33335C18.0573 9.33335 17.8334 9.10949 17.8334 8.83335V7.16668C17.8334 6.89054 18.0573 6.66668 18.3334 6.66668ZM4.31248 6.66669H10.6877C11.1366 6.66668 11.5037 6.66668 11.8021 6.69105C12.111 6.71629 12.3899 6.77011 12.6504 6.90284C13.0581 7.11056 13.3895 7.44202 13.5973 7.84971C13.73 8.1102 13.7838 8.38913 13.809 8.69797C13.8334 8.99636 13.8334 9.36351 13.8334 9.81244V16.1876C13.8334 16.6365 13.8334 17.0037 13.809 17.3021C13.7838 17.6109 13.73 17.8898 13.5973 18.1503C13.3895 18.558 13.0581 18.8895 12.6504 19.0972C12.3899 19.2299 12.111 19.2838 11.8021 19.309C11.5038 19.3334 11.1366 19.3334 10.6877 19.3334H4.31246C3.86354 19.3334 3.49641 19.3334 3.19804 19.309C2.88919 19.2838 2.61026 19.2299 2.34977 19.0972C1.94208 18.8895 1.61063 18.558 1.4029 18.1503C1.27017 17.8898 1.21635 17.6109 1.19112 17.3021C1.16674 17.0037 1.16674 16.6365 1.16675 16.1876V9.81241C1.16674 9.36349 1.16674 8.99635 1.19112 8.69797C1.21635 8.38913 1.27017 8.1102 1.4029 7.84971C1.61063 7.44202 1.94208 7.11056 2.34977 6.90284C2.61026 6.77011 2.88919 6.71629 3.19804 6.69105C3.49641 6.66668 3.86356 6.66668 4.31248 6.66669ZM3.27947 7.68773C3.03247 7.70791 2.89979 7.74492 2.80376 7.79385C2.58424 7.9057 2.40576 8.08417 2.29391 8.3037C2.24498 8.39972 2.20798 8.53241 2.18779 8.7794C2.16714 9.03224 2.16675 9.35839 2.16675 9.83335V16.1667C2.16675 16.6416 2.16714 16.9678 2.18779 17.2206C2.20798 17.4676 2.24498 17.6003 2.29391 17.6963C2.40576 17.9159 2.58424 18.0943 2.80376 18.2062C2.89979 18.2551 3.03247 18.2921 3.27947 18.3123C3.5323 18.333 3.85845 18.3334 4.33341 18.3334H10.6667C11.1417 18.3334 11.4679 18.333 11.7207 18.3123C11.9677 18.2921 12.1004 18.2551 12.1964 18.2062C12.4159 18.0943 12.5944 17.9159 12.7063 17.6963C12.7552 17.6003 12.7922 17.4676 12.8124 17.2206C12.833 16.9678 12.8334 16.6416 12.8334 16.1667V9.83335C12.8334 9.35839 12.833 9.03224 12.8124 8.7794C12.7922 8.53241 12.7552 8.39972 12.7063 8.3037C12.5944 8.08417 12.4159 7.9057 12.1964 7.79385C12.1004 7.74492 11.9677 7.70791 11.7207 7.68773C11.4679 7.66708 11.1417 7.66669 10.6667 7.66669H4.33341C3.85845 7.66669 3.5323 7.66708 3.27947 7.68773ZM18.3379 11.2501C18.614 11.2538 18.8348 11.4807 18.831 11.7568C18.8235 12.3099 18.7961 12.7601 18.5973 13.1503C18.3895 13.558 18.0581 13.8895 17.6504 14.0972C17.2602 14.296 16.81 14.3235 16.2569 14.331C15.9807 14.3347 15.7539 14.1139 15.7501 13.8378C15.7464 13.5617 15.9672 13.3348 16.2433 13.3311C16.8153 13.3233 17.0405 13.2857 17.1964 13.2062C17.4159 13.0943 17.5944 12.9159 17.7063 12.6963C17.7857 12.5404 17.8234 12.3152 17.8311 11.7432C17.8349 11.4671 18.0617 11.2463 18.3379 11.2501Z" fill="current"/>
</svg>
