<svg width="100%" height="100%" viewBox="0 0 20 20" fill="none" xmlns="http://www.w3.org/2000/svg">
<path fill-rule="evenodd" clip-rule="evenodd" d="M9.31239 1.16663H10.6876C11.1365 1.16662 11.5037 1.16662 11.802 1.19099C12.1109 1.21623 12.3898 1.27005 12.6503 1.40278C13.058 1.6105 13.3895 1.94196 13.5972 2.34965C13.7299 2.61014 13.7837 2.88907 13.809 3.19791C13.8333 3.49629 13.8333 3.86342 13.8333 4.31233V4.49996H17.5C17.7761 4.49996 18 4.72382 18 4.99996C18 5.2761 17.7761 5.49996 17.5 5.49996H16.3333V14.3552C16.3333 15.0367 16.3333 15.5787 16.2976 16.016C16.261 16.4638 16.1845 16.8456 16.0064 17.1953C15.7187 17.7597 15.2598 18.2187 14.6953 18.5063C14.3457 18.6845 13.9638 18.761 13.516 18.7976C13.0788 18.8333 12.5367 18.8333 11.8552 18.8333H8.14478C7.46326 18.8333 6.92125 18.8333 6.48396 18.7976C6.03615 18.761 5.65432 18.6845 5.3047 18.5063C4.74021 18.2187 4.28127 17.7597 3.99365 17.1953C3.8155 16.8456 3.73897 16.4638 3.70239 16.016C3.66666 15.5787 3.66666 15.0367 3.66667 14.3552V5.49996H2.5C2.22386 5.49996 2 5.2761 2 4.99996C2 4.72382 2.22386 4.49996 2.5 4.49996H6.16667V4.31235C6.16666 3.86343 6.16666 3.49629 6.19103 3.19791C6.21627 2.88907 6.27009 2.61014 6.40282 2.34965C6.61054 1.94196 6.942 1.6105 7.34969 1.40278C7.61018 1.27005 7.88911 1.21623 8.19795 1.19099C8.49633 1.16662 8.86347 1.16662 9.31239 1.16663ZM4.66667 5.49996V14.3333C4.66667 15.0416 4.66706 15.5428 4.69907 15.9346C4.7306 16.3205 4.79031 16.5561 4.88465 16.7413C5.0764 17.1176 5.38236 17.4236 5.75869 17.6153C5.94384 17.7096 6.17943 17.7694 6.56539 17.8009C6.95718 17.8329 7.45835 17.8333 8.16667 17.8333H11.8333C12.5416 17.8333 13.0428 17.8329 13.4346 17.8009C13.8206 17.7694 14.0562 17.7096 14.2413 17.6153C14.6176 17.4236 14.9236 17.1176 15.1153 16.7413C15.2097 16.5561 15.2694 16.3205 15.3009 15.9346C15.3329 15.5428 15.3333 15.0416 15.3333 14.3333V5.49996H4.66667ZM12.8333 4.49996H7.16667V4.33329C7.16667 3.85833 7.16706 3.53218 7.18771 3.27935C7.20789 3.03235 7.2449 2.89966 7.29383 2.80364C7.40568 2.58411 7.58416 2.40564 7.80368 2.29379C7.8997 2.24486 8.03239 2.20785 8.27939 2.18767C8.53222 2.16702 8.85837 2.16663 9.33333 2.16663H10.6667C11.1416 2.16663 11.4678 2.16702 11.7206 2.18767C11.9676 2.20785 12.1003 2.24486 12.1963 2.29379C12.4158 2.40564 12.5943 2.58411 12.7062 2.80364C12.7551 2.89966 12.7921 3.03235 12.8123 3.27935C12.8329 3.53218 12.8333 3.85833 12.8333 4.33329V4.49996ZM8.33333 9.08329C8.60948 9.08329 8.83333 9.30715 8.83333 9.58329V13.75C8.83333 14.0261 8.60948 14.25 8.33333 14.25C8.05719 14.25 7.83333 14.0261 7.83333 13.75V9.58329C7.83333 9.30715 8.05719 9.08329 8.33333 9.08329ZM11.6667 9.08329C11.9428 9.08329 12.1667 9.30715 12.1667 9.58329V13.75C12.1667 14.0261 11.9428 14.25 11.6667 14.25C11.3905 14.25 11.1667 14.0261 11.1667 13.75V9.58329C11.1667 9.30715 11.3905 9.08329 11.6667 9.08329Z" fill="current"/>
</svg>
