<svg width="100%" height="100%" viewBox="0 0 20 21" fill="none" xmlns="http://www.w3.org/2000/svg">
<path fill-rule="evenodd" clip-rule="evenodd" d="M6.47812 2.5H13.5219C14.2034 2.5 14.7454 2.49999 15.1827 2.53572C15.6305 2.57231 16.0123 2.64884 16.362 2.82698C16.9265 3.1146 17.3854 3.57354 17.673 4.13803C17.8512 4.48765 17.9277 4.86949 17.9643 5.31729C18 5.75459 18 6.29662 18 6.97816V14.0218C18 14.7034 18 15.2454 17.9643 15.6827C17.9277 16.1305 17.8512 16.5123 17.673 16.862C17.3854 17.4265 16.9265 17.8854 16.362 18.173C16.0123 18.3512 15.6305 18.4277 15.1827 18.4643C14.7454 18.5 14.2034 18.5 13.5218 18.5H6.47816C5.79662 18.5 5.25459 18.5 4.81729 18.4643C4.36949 18.4277 3.98765 18.3512 3.63803 18.173C3.07354 17.8854 2.6146 17.4265 2.32698 16.862C2.14884 16.5123 2.07231 16.1305 2.03572 15.6827C1.99999 15.2454 2 14.7034 2 14.0219V6.97812C2 6.2966 1.99999 5.75458 2.03572 5.31729C2.07231 4.86949 2.14884 4.48765 2.32698 4.13803C2.6146 3.57354 3.07354 3.1146 3.63803 2.82698C3.98765 2.64884 4.36949 2.57231 4.81729 2.53572C5.25458 2.49999 5.7966 2.5 6.47812 2.5ZM3 8.5V12.5H17V8.5H3ZM17 7.5H3V7C3 6.29168 3.00039 5.79052 3.0324 5.39872C3.06393 5.01276 3.12365 4.77717 3.21799 4.59202C3.40973 4.21569 3.71569 3.90973 4.09202 3.71799C4.27717 3.62365 4.51276 3.56393 4.89872 3.5324C5.29052 3.50039 5.79168 3.5 6.5 3.5H13.5C14.2083 3.5 14.7095 3.50039 15.1013 3.5324C15.4872 3.56393 15.7228 3.62365 15.908 3.71799C16.2843 3.90973 16.5903 4.21569 16.782 4.59202C16.8764 4.77717 16.9361 5.01276 16.9676 5.39872C16.9996 5.79052 17 6.29168 17 7V7.5ZM17 13.5H3V14C3 14.7083 3.00039 15.2095 3.0324 15.6013C3.06393 15.9872 3.12365 16.2228 3.21799 16.408C3.40973 16.7843 3.71569 17.0903 4.09202 17.282C4.27717 17.3764 4.51276 17.4361 4.89872 17.4676C5.29052 17.4996 5.79168 17.5 6.5 17.5H13.5C14.2083 17.5 14.7095 17.4996 15.1013 17.4676C15.4872 17.4361 15.7228 17.3764 15.908 17.282C16.2843 17.0903 16.5903 16.7843 16.782 16.408C16.8764 16.2228 16.9361 15.9872 16.9676 15.6013C16.9996 15.2095 17 14.7083 17 14V13.5Z" fill="current"/>
</svg>
