<svg width="100%" height="100%" viewBox="0 0 20 21" fill="none" xmlns="http://www.w3.org/2000/svg">
<path fill-rule="evenodd" clip-rule="evenodd" d="M3.81482 2.5C3.82097 2.5 3.82714 2.5 3.83333 2.5L7.01852 2.5C7.23602 2.49999 7.42852 2.49998 7.58805 2.51302C7.75793 2.52689 7.93396 2.55801 8.10532 2.64533C8.3562 2.77316 8.56018 2.97713 8.68801 3.22801C8.77532 3.39938 8.80644 3.57541 8.82032 3.74529C8.83335 3.90481 8.83334 4.09731 8.83333 4.31481V7.51853C8.83334 7.73603 8.83335 7.92852 8.82032 8.08805C8.80644 8.25793 8.77532 8.43396 8.68801 8.60532C8.56018 8.8562 8.3562 9.06018 8.10532 9.18801C7.93396 9.27532 7.75793 9.30644 7.58805 9.32032C7.42852 9.33335 7.23603 9.33334 7.01853 9.33333H3.8148C3.59731 9.33334 3.40481 9.33335 3.24529 9.32032C3.07541 9.30644 2.89938 9.27532 2.72801 9.18801C2.47713 9.06018 2.27316 8.8562 2.14533 8.60532C2.05801 8.43396 2.02689 8.25793 2.01302 8.08805C1.99998 7.92852 1.99999 7.73602 2 7.51852L2 4.33333C2 4.32714 2 4.32097 2 4.31482C1.99999 4.09731 1.99998 3.90482 2.01302 3.74529C2.02689 3.57541 2.05801 3.39938 2.14533 3.22801C2.27316 2.97713 2.47713 2.77316 2.72801 2.64533C2.89938 2.55801 3.07541 2.52689 3.24529 2.51302C3.40482 2.49998 3.59731 2.49999 3.81482 2.5ZM3.32672 3.50969C3.21868 3.51852 3.1889 3.53282 3.182 3.53633C3.11928 3.56829 3.06829 3.61928 3.03633 3.682C3.03282 3.6889 3.01852 3.71868 3.00969 3.82672C3.00039 3.9406 3 4.09173 3 4.33333V7.5C3 7.74161 3.00039 7.89274 3.00969 8.00662C3.01852 8.11466 3.03282 8.14443 3.03633 8.15133C3.06829 8.21405 3.11928 8.26505 3.182 8.297C3.1889 8.30052 3.21868 8.31481 3.32672 8.32364C3.4406 8.33295 3.59173 8.33333 3.83333 8.33333H7C7.24161 8.33333 7.39274 8.33295 7.50662 8.32364C7.61466 8.31481 7.64443 8.30052 7.65133 8.297C7.71405 8.26505 7.76505 8.21405 7.797 8.15133C7.80052 8.14443 7.81481 8.11466 7.82364 8.00662C7.83295 7.89274 7.83333 7.74161 7.83333 7.5V4.33333C7.83333 4.09173 7.83295 3.9406 7.82364 3.82672C7.81481 3.71868 7.80052 3.6889 7.797 3.682C7.76505 3.61928 7.71405 3.56829 7.65133 3.53633C7.64444 3.53282 7.61466 3.51852 7.50662 3.50969C7.39274 3.50039 7.24161 3.5 7 3.5H3.83333C3.59173 3.5 3.4406 3.50039 3.32672 3.50969ZM12.9815 2.5H16.1852C16.4027 2.49999 16.5952 2.49998 16.7547 2.51302C16.9246 2.52689 17.1006 2.55801 17.272 2.64533C17.5229 2.77316 17.7268 2.97713 17.8547 3.22801C17.942 3.39938 17.9731 3.57541 17.987 3.74529C18 3.90483 18 4.09733 18 4.31485V7.51849C18 7.736 18 7.92851 17.987 8.08805C17.9731 8.25793 17.942 8.43396 17.8547 8.60532C17.7268 8.8562 17.5229 9.06018 17.272 9.18801C17.1006 9.27532 16.9246 9.30644 16.7547 9.32032C16.5952 9.33335 16.4027 9.33334 16.1852 9.33333H12.9815C12.764 9.33334 12.5715 9.33335 12.412 9.32032C12.2421 9.30644 12.066 9.27532 11.8947 9.18801C11.6438 9.06018 11.4398 8.8562 11.312 8.60532C11.2247 8.43396 11.1936 8.25793 11.1797 8.08805C11.1666 7.92851 11.1667 7.736 11.1667 7.51849V4.31485C11.1667 4.09733 11.1666 3.90483 11.1797 3.74529C11.1936 3.57541 11.2247 3.39938 11.312 3.22801C11.4398 2.97713 11.6438 2.77316 11.8947 2.64533C12.066 2.55801 12.2421 2.52689 12.412 2.51302C12.5715 2.49998 12.764 2.49999 12.9815 2.5ZM12.4934 3.50969C12.3853 3.51852 12.3556 3.53282 12.3487 3.53633C12.2859 3.56829 12.235 3.61928 12.203 3.682C12.1995 3.6889 12.1852 3.71868 12.1764 3.82672C12.1671 3.9406 12.1667 4.09173 12.1667 4.33333V7.5C12.1667 7.74161 12.1671 7.89274 12.1764 8.00662C12.1852 8.11466 12.1995 8.14443 12.203 8.15133C12.235 8.21405 12.2859 8.26505 12.3487 8.297C12.3556 8.30052 12.3853 8.31481 12.4934 8.32364C12.6073 8.33295 12.7584 8.33333 13 8.33333H16.1667C16.4083 8.33333 16.5594 8.33295 16.6733 8.32364C16.7813 8.31481 16.8111 8.30052 16.818 8.297C16.8807 8.26505 16.9317 8.21405 16.9637 8.15133C16.9672 8.14444 16.9815 8.11466 16.9903 8.00662C16.9996 7.89274 17 7.74161 17 7.5V4.33333C17 4.09173 16.9996 3.9406 16.9903 3.82672C16.9815 3.71868 16.9672 3.6889 16.9637 3.682C16.9317 3.61928 16.8807 3.56829 16.818 3.53633C16.8111 3.53282 16.7813 3.51852 16.6733 3.50969C16.5594 3.50039 16.4083 3.5 16.1667 3.5H13C12.7584 3.5 12.6073 3.50039 12.4934 3.50969ZM3.81485 11.6667H7.01849C7.236 11.6667 7.42851 11.6666 7.58805 11.6797C7.75793 11.6936 7.93396 11.7247 8.10532 11.812C8.3562 11.9398 8.56018 12.1438 8.68801 12.3947C8.77532 12.566 8.80644 12.7421 8.82032 12.912C8.83335 13.0715 8.83334 13.264 8.83333 13.4815V16.6852C8.83334 16.9027 8.83335 17.0952 8.82032 17.2547C8.80644 17.4246 8.77532 17.6006 8.68801 17.772C8.56018 18.0229 8.3562 18.2268 8.10532 18.3547C7.93396 18.442 7.75793 18.4731 7.58805 18.487C7.42851 18.5 7.236 18.5 7.01849 18.5H3.81485C3.59733 18.5 3.40483 18.5 3.24529 18.487C3.07541 18.4731 2.89938 18.442 2.72801 18.3547C2.47713 18.2268 2.27316 18.0229 2.14533 17.772C2.05801 17.6006 2.02689 17.4246 2.01302 17.2547C1.99998 17.0952 1.99999 16.9027 2 16.6852V13.4815C1.99999 13.264 1.99998 13.0715 2.01302 12.912C2.02689 12.7421 2.05801 12.566 2.14533 12.3947C2.27316 12.1438 2.47713 11.9398 2.72801 11.812C2.89938 11.7247 3.07541 11.6936 3.24529 11.6797C3.40483 11.6666 3.59733 11.6667 3.81485 11.6667ZM3.32672 12.6764C3.21868 12.6852 3.1889 12.6995 3.182 12.703C3.11928 12.735 3.06829 12.7859 3.03633 12.8487C3.03282 12.8556 3.01852 12.8853 3.00969 12.9934C3.00039 13.1073 3 13.2584 3 13.5V16.6667C3 16.9083 3.00039 17.0594 3.00969 17.1733C3.01852 17.2813 3.03282 17.3111 3.03633 17.318C3.06829 17.3807 3.11928 17.4317 3.182 17.4637C3.1889 17.4672 3.21868 17.4815 3.32672 17.4903C3.4406 17.4996 3.59173 17.5 3.83333 17.5H7C7.24161 17.5 7.39274 17.4996 7.50662 17.4903C7.61466 17.4815 7.64443 17.4672 7.65133 17.4637C7.71405 17.4317 7.76505 17.3807 7.797 17.318C7.80052 17.3111 7.81481 17.2813 7.82364 17.1733C7.83295 17.0594 7.83333 16.9083 7.83333 16.6667V13.5C7.83333 13.2584 7.83295 13.1073 7.82364 12.9934C7.81481 12.8853 7.80052 12.8556 7.797 12.8487C7.76505 12.7859 7.71405 12.735 7.65133 12.703C7.64443 12.6995 7.61466 12.6852 7.50662 12.6764C7.39274 12.6671 7.24161 12.6667 7 12.6667H3.83333C3.59173 12.6667 3.4406 12.6671 3.32672 12.6764ZM12.9815 11.6667H16.1852C16.4027 11.6667 16.5952 11.6666 16.7547 11.6797C16.9246 11.6936 17.1006 11.7247 17.272 11.812C17.5229 11.9398 17.7268 12.1438 17.8547 12.3947C17.942 12.566 17.9731 12.7421 17.987 12.912C18 13.0715 18 13.264 18 13.4815V16.6852C18 16.9027 18 17.0952 17.987 17.2547C17.9731 17.4246 17.942 17.6006 17.8547 17.772C17.7268 18.0229 17.5229 18.2268 17.272 18.3547C17.1006 18.442 16.9246 18.4731 16.7547 18.487C16.5952 18.5 16.4027 18.5 16.1852 18.5H12.9815C12.764 18.5 12.5715 18.5 12.412 18.487C12.2421 18.4731 12.066 18.442 11.8947 18.3547C11.6438 18.2268 11.4398 18.0229 11.312 17.772C11.2247 17.6006 11.1936 17.4246 11.1797 17.2547C11.1666 17.0952 11.1667 16.9027 11.1667 16.6852V13.4815C11.1667 13.264 11.1666 13.0715 11.1797 12.912C11.1936 12.7421 11.2247 12.566 11.312 12.3947C11.4398 12.1438 11.6438 11.9398 11.8947 11.812C12.066 11.7247 12.2421 11.6936 12.412 11.6797C12.5715 11.6666 12.764 11.6667 12.9815 11.6667ZM12.4934 12.6764C12.3853 12.6852 12.3556 12.6995 12.3487 12.703C12.2859 12.735 12.235 12.7859 12.203 12.8487C12.1995 12.8556 12.1852 12.8853 12.1764 12.9934C12.1671 13.1073 12.1667 13.2584 12.1667 13.5V16.6667C12.1667 16.9083 12.1671 17.0594 12.1764 17.1733C12.1852 17.2813 12.1995 17.3111 12.203 17.318C12.235 17.3807 12.2859 17.4317 12.3487 17.4637C12.3556 17.4672 12.3853 17.4815 12.4934 17.4903C12.6073 17.4996 12.7584 17.5 13 17.5H16.1667C16.4083 17.5 16.5594 17.4996 16.6733 17.4903C16.7813 17.4815 16.8111 17.4672 16.818 17.4637C16.8807 17.4317 16.9317 17.3807 16.9637 17.318C16.9672 17.3111 16.9815 17.2813 16.9903 17.1733C16.9996 17.0594 17 16.9083 17 16.6667V13.5C17 13.2584 16.9996 13.1073 16.9903 12.9934C16.9815 12.8853 16.9672 12.8556 16.9637 12.8487C16.9317 12.7859 16.8807 12.735 16.818 12.703C16.8111 12.6995 16.7813 12.6852 16.6733 12.6764C16.5594 12.6671 16.4083 12.6667 16.1667 12.6667H13C12.7584 12.6667 12.6073 12.6671 12.4934 12.6764Z" fill="current"/>
</svg>
