<svg width="100%" height="100%" viewBox="0 0 20 21" fill="none" xmlns="http://www.w3.org/2000/svg">
<path fill-rule="evenodd" clip-rule="evenodd" d="M2 5.5C2 5.22386 2.22386 5 2.5 5H17.5C17.7761 5 18 5.22386 18 5.5C18 5.77614 17.7761 6 17.5 6H2.5C2.22386 6 2 5.77614 2 5.5ZM4.5 10.5C4.5 10.2239 4.72386 10 5 10H15C15.2761 10 15.5 10.2239 15.5 10.5C15.5 10.7761 15.2761 11 15 11H5C4.72386 11 4.5 10.7761 4.5 10.5ZM7 15.5C7 15.2239 7.22386 15 7.5 15H12.5C12.7761 15 13 15.2239 13 15.5C13 15.7761 12.7761 16 12.5 16H7.5C7.22386 16 7 15.7761 7 15.5Z" fill="current"/>
</svg>
