<svg width="100%" height="100%" viewBox="0 0 20 20" fill="none" xmlns="http://www.w3.org/2000/svg">
<path fill-rule="evenodd" clip-rule="evenodd" d="M10.0872 2.40062C10.0301 2.38518 9.96997 2.38518 9.91292 2.40062C9.87195 2.41172 9.81769 2.44191 9.48842 2.69801L3.8365 7.09395C3.43634 7.40518 3.3144 7.50552 3.22872 7.62137C3.14433 7.73546 3.08147 7.86399 3.04322 8.00065C3.00438 8.13941 3.00004 8.29726 3.00004 8.80421V14.8333C3.00004 15.3083 3.00043 15.6344 3.02108 15.8873C3.04126 16.1343 3.07827 16.2669 3.1272 16.363C3.23905 16.5825 3.41753 16.761 3.63705 16.8728C3.73307 16.9218 3.86576 16.9588 4.11276 16.9789C4.36559 16.9996 4.69174 17 5.1667 17H14.8334C15.3083 17 15.6345 16.9996 15.8873 16.9789C16.1343 16.9588 16.267 16.9218 16.363 16.8728C16.5825 16.761 16.761 16.5825 16.8729 16.363C16.9218 16.2669 16.9588 16.1343 16.979 15.8873C16.9996 15.6344 17 15.3083 17 14.8333V8.80421C17 8.29726 16.9957 8.13941 16.9569 8.00065C16.9186 7.86399 16.8557 7.73546 16.7714 7.62137C16.6857 7.50552 16.5637 7.40518 16.1636 7.09395L10.5117 2.69801C10.1824 2.44191 10.1281 2.41172 10.0872 2.40062ZM9.65158 1.43538C9.87978 1.37359 10.1203 1.37359 10.3485 1.43538C10.6105 1.5063 10.8347 1.68148 11.0704 1.86561C11.0887 1.87992 11.1071 1.89428 11.1256 1.90866L16.7775 6.30459C16.7943 6.31765 16.8109 6.33051 16.8272 6.34321C17.157 6.59946 17.3976 6.78647 17.5753 7.02672C17.7321 7.23861 17.8488 7.47731 17.9198 7.7311C18.0004 8.01887 18.0002 8.32366 18.0001 8.74131C18 8.762 18 8.78296 18 8.80421V14.8542C18 15.3032 18 15.6703 17.9757 15.9687C17.9504 16.2775 17.8966 16.5565 17.7639 16.817C17.5562 17.2246 17.2247 17.5561 16.817 17.7638C16.5565 17.8966 16.2776 17.9504 15.9688 17.9756C15.6704 18 15.3032 18 14.8542 18H5.14584C4.69689 18 4.32972 18 4.03132 17.9756C3.72248 17.9504 3.44355 17.8966 3.18306 17.7638C2.77537 17.5561 2.44392 17.2246 2.23619 16.817C2.10346 16.5565 2.04964 16.2775 2.02441 15.9687C2.00003 15.6703 2.00003 15.3032 2.00004 14.8543L2.00004 8.80421C2.00004 8.78295 2.00003 8.76198 2.00002 8.74129C1.99983 8.32366 1.99969 8.01887 2.08023 7.7311C2.15127 7.47731 2.26802 7.23861 2.42473 7.02672C2.60243 6.78647 2.8431 6.59946 3.17288 6.34321C3.18922 6.33051 3.20578 6.31765 3.22256 6.30459L8.87448 1.90866C8.89296 1.89428 8.91135 1.87992 8.92966 1.86561C9.16538 1.68148 9.38962 1.5063 9.65158 1.43538ZM6.1667 14.1667C6.1667 13.8905 6.39056 13.6667 6.6667 13.6667H13.3334C13.6095 13.6667 13.8334 13.8905 13.8334 14.1667C13.8334 14.4428 13.6095 14.6667 13.3334 14.6667H6.6667C6.39056 14.6667 6.1667 14.4428 6.1667 14.1667Z" fill="current"/>
</svg>
