<svg width="100%" height="100%" viewBox="0 0 20 21" fill="none" xmlns="http://www.w3.org/2000/svg">
<path fill-rule="evenodd" clip-rule="evenodd" d="M2.88364 2.66722C2.84837 2.6667 2.80754 2.66669 2.75522 2.66669H1.66675C1.39061 2.66669 1.16675 2.44283 1.16675 2.16669C1.16675 1.89055 1.39061 1.66669 1.66675 1.66669H2.75522C2.75969 1.66669 2.76417 1.66669 2.76867 1.66669C2.85942 1.66667 2.95329 1.66666 3.03433 1.67286C3.12563 1.67985 3.23704 1.69661 3.35306 1.74963C3.513 1.82272 3.64853 1.94027 3.7435 2.08826C3.8124 2.19561 3.84475 2.30354 3.86458 2.39293C3.88218 2.47228 3.89544 2.56521 3.90826 2.65506C3.90889 2.65951 3.90953 2.66394 3.91016 2.66837L4.24325 5.00002L17.5446 5.00002C17.6682 5 17.791 4.99999 17.8944 5.009C18.0068 5.0188 18.1505 5.04257 18.2915 5.12472C18.4792 5.23411 18.6219 5.4066 18.6942 5.61144C18.7486 5.76527 18.745 5.91086 18.7336 6.02319C18.7231 6.12644 18.7001 6.24709 18.677 6.36853L17.5673 12.1942C17.4968 12.5644 17.4388 12.8692 17.3723 13.1163C17.3031 13.3736 17.2164 13.6026 17.0721 13.8121C16.8442 14.1432 16.5286 14.4043 16.1607 14.5663C15.9279 14.6688 15.6868 14.7111 15.4211 14.731C15.1659 14.75 14.8556 14.75 14.4787 14.75H7.30918C6.91302 14.75 6.58746 14.75 6.32053 14.7295C6.04304 14.7082 5.79156 14.6628 5.5508 14.5522C5.17134 14.3778 4.85035 14.0976 4.62644 13.7451C4.48439 13.5214 4.40547 13.2784 4.34694 13.0063C4.29064 12.7445 4.24675 12.4219 4.19335 12.0294L3.31463 5.57073L2.92021 2.80979C2.91281 2.75799 2.90702 2.71757 2.90152 2.68274C2.90067 2.67738 2.89986 2.6723 2.89907 2.6675C2.8942 2.6674 2.88906 2.6673 2.88364 2.66722ZM4.38224 6.00002L5.18162 11.8755C5.23827 12.2918 5.2773 12.5762 5.32458 12.796C5.37053 13.0096 5.41715 13.1248 5.47055 13.2089C5.59111 13.3987 5.76396 13.5496 5.96828 13.6435C6.05879 13.6851 6.17922 13.7157 6.39711 13.7325C6.62123 13.7497 6.90828 13.75 7.3285 13.75H14.4601C14.8602 13.75 15.133 13.7497 15.3466 13.7337C15.5539 13.7183 15.6696 13.6899 15.7577 13.6511C15.9558 13.5639 16.1257 13.4233 16.2485 13.245C16.3031 13.1657 16.3526 13.0573 16.4066 12.8566C16.4622 12.6498 16.5136 12.3818 16.5885 11.9888L17.6915 6.19788C17.708 6.11129 17.7197 6.04903 17.7276 6.00133C17.6793 6.00018 17.6159 6.00002 17.5278 6.00002H4.38224ZM6.16675 18C6.16675 17.2636 6.7637 16.6667 7.50008 16.6667C8.23646 16.6667 8.83341 17.2636 8.83341 18C8.83341 18.7364 8.23646 19.3334 7.50008 19.3334C6.7637 19.3334 6.16675 18.7364 6.16675 18ZM12.8334 18C12.8334 17.2636 13.4304 16.6667 14.1667 16.6667C14.9031 16.6667 15.5001 17.2636 15.5001 18C15.5001 18.7364 14.9031 19.3334 14.1667 19.3334C13.4304 19.3334 12.8334 18.7364 12.8334 18Z" fill="current"/>
</svg>
