<svg width="100%" height="100%" viewBox="0 0 20 21" fill="none" xmlns="http://www.w3.org/2000/svg">
<path fill-rule="evenodd" clip-rule="evenodd" d="M7.83342 10.5C7.83342 7.92265 9.92275 5.83331 12.5001 5.83331H14.1667C16.7441 5.83331 18.8334 7.92265 18.8334 10.5C18.8334 13.0773 16.7441 15.1666 14.1667 15.1666H13.7501C13.4739 15.1666 13.2501 14.9428 13.2501 14.6666C13.2501 14.3905 13.4739 14.1666 13.7501 14.1666H14.1667C16.1918 14.1666 17.8334 12.525 17.8334 10.5C17.8334 8.47494 16.1918 6.83331 14.1667 6.83331H12.5001C10.475 6.83331 8.83342 8.47494 8.83342 10.5C8.83342 10.7761 8.60956 11 8.33342 11C8.05727 11 7.83342 10.7761 7.83342 10.5ZM5.83341 6.83331C3.80837 6.83331 2.16675 8.47494 2.16675 10.5C2.16675 12.525 3.80837 14.1666 5.83341 14.1666H7.50008C9.52513 14.1666 11.1667 12.525 11.1667 10.5C11.1667 10.2238 11.3906 9.99998 11.6667 9.99998C11.9429 9.99998 12.1667 10.2238 12.1667 10.5C12.1667 13.0773 10.0774 15.1666 7.50008 15.1666H5.83341C3.25609 15.1666 1.16675 13.0773 1.16675 10.5C1.16675 7.92265 3.25609 5.83331 5.83341 5.83331H6.25008C6.52622 5.83331 6.75008 6.05717 6.75008 6.33331C6.75008 6.60946 6.52622 6.83331 6.25008 6.83331H5.83341Z" fill="current"/>
</svg>
