<svg width="100%" height="100%" viewBox="0 0 20 21" fill="none" xmlns="http://www.w3.org/2000/svg">
<path d="M3.33333 4.16669C2.59695 4.16669 2 4.76364 2 5.50002C2 6.2364 2.59695 6.83335 3.33333 6.83335C4.06971 6.83335 4.66667 6.2364 4.66667 5.50002C4.66667 4.76364 4.06971 4.16669 3.33333 4.16669Z" fill="current"/>
<path d="M7.5 5.00002C7.22386 5.00002 7 5.22388 7 5.50002C7 5.77616 7.22386 6.00002 7.5 6.00002L17.5 6.00002C17.7761 6.00002 18 5.77616 18 5.50002C18 5.22388 17.7761 5.00002 17.5 5.00002L7.5 5.00002Z" fill="current"/>
<path d="M3.33333 9.16669C2.59695 9.16669 2 9.76364 2 10.5C2 11.2364 2.59695 11.8334 3.33333 11.8334C4.06971 11.8334 4.66667 11.2364 4.66667 10.5C4.66667 9.76364 4.06971 9.16669 3.33333 9.16669Z" fill="current"/>
<path d="M7.5 10C7.22386 10 7 10.2239 7 10.5C7 10.7762 7.22386 11 7.5 11L17.5 11C17.7761 11 18 10.7762 18 10.5C18 10.2239 17.7761 10 17.5 10L7.5 10Z" fill="current"/>
<path d="M3.33333 14.1667C2.59695 14.1667 2 14.7636 2 15.5C2 16.2364 2.59695 16.8334 3.33333 16.8334C4.06971 16.8334 4.66667 16.2364 4.66667 15.5C4.66667 14.7636 4.06971 14.1667 3.33333 14.1667Z" fill="current"/>
<path d="M7.5 15C7.22386 15 7 15.2239 7 15.5C7 15.7762 7.22386 16 7.5 16L17.5 16C17.7761 16 18 15.7762 18 15.5C18 15.2239 17.7761 15 17.5 15L7.5 15Z" fill="current"/>
</svg>
