<svg width="100%" height="100%" viewBox="0 0 20 21" fill="none" xmlns="http://www.w3.org/2000/svg">
<path fill-rule="evenodd" clip-rule="evenodd" d="M9.99994 3.5C8.20501 3.5 6.74994 4.95507 6.74994 6.75C6.74994 8.54493 8.20501 10 9.99994 10C11.7949 10 13.2499 8.54493 13.2499 6.75C13.2499 4.95507 11.7949 3.5 9.99994 3.5ZM5.74994 6.75C5.74994 4.40279 7.65273 2.5 9.99994 2.5C12.3471 2.5 14.2499 4.40279 14.2499 6.75C14.2499 9.09721 12.3471 11 9.99994 11C7.65273 11 5.74994 9.09721 5.74994 6.75ZM7.81547 12.9167C7.84878 12.9167 7.88248 12.9167 7.91661 12.9167H12.0833C12.1174 12.9167 12.1511 12.9167 12.1844 12.9167C13.2506 12.9165 13.901 12.9164 14.446 13.0817C15.6712 13.4534 16.6299 14.4121 17.0015 15.6372C17.1669 16.1822 17.1668 16.8327 17.1666 17.8989C17.1666 17.9322 17.1666 17.9659 17.1666 18C17.1666 18.2761 16.9427 18.5 16.6666 18.5C16.3905 18.5 16.1666 18.2761 16.1666 18C16.1666 16.8007 16.1612 16.3118 16.0446 15.9275C15.7699 15.022 15.0613 14.3134 14.1557 14.0387C13.7714 13.9221 13.2826 13.9167 12.0833 13.9167H7.91661C6.71726 13.9167 6.22843 13.9221 5.84413 14.0387C4.93859 14.3134 4.22997 15.022 3.95527 15.9275C3.8387 16.3118 3.83327 16.8007 3.83327 18C3.83327 18.2761 3.60941 18.5 3.33327 18.5C3.05713 18.5 2.83327 18.2761 2.83327 18C2.83327 17.9659 2.83327 17.9322 2.83326 17.8989C2.8331 16.8327 2.83301 16.1822 2.99833 15.6372C3.36998 14.4121 4.32871 13.4534 5.55384 13.0817C6.09885 12.9164 6.74928 12.9165 7.81547 12.9167Z" fill="current"/>
</svg>
