<svg width="100%" height="100%" viewBox="0 0 20 21" fill="none" xmlns="http://www.w3.org/2000/svg">
<path fill-rule="evenodd" clip-rule="evenodd" d="M10.0001 4.16669C10.2762 4.16669 10.5001 4.39054 10.5001 4.66669V10H15.8334C16.1096 10 16.3334 10.2239 16.3334 10.5C16.3334 10.7762 16.1096 11 15.8334 11H10.5001V16.3334C10.5001 16.6095 10.2762 16.8334 10.0001 16.8334C9.72394 16.8334 9.50008 16.6095 9.50008 16.3334V11H4.16675C3.89061 11 3.66675 10.7762 3.66675 10.5C3.66675 10.2239 3.89061 10 4.16675 10H9.50008V4.66669C9.50008 4.39054 9.72394 4.16669 10.0001 4.16669Z" fill="current"/>
</svg>
