<svg width="100%" height="100%" viewBox="0 0 20 21" fill="none" xmlns="http://www.w3.org/2000/svg">
<path fill-rule="evenodd" clip-rule="evenodd" d="M9.9387 4.60114C8.30891 4.60114 6.83428 5.26144 5.76613 6.33032C5.20776 6.88908 4.57608 7.64631 4.07778 8.27317C3.99325 8.37951 3.91287 8.48169 3.83771 8.57803H7.09477C7.37091 8.57803 7.59477 8.80189 7.59477 9.07803C7.59477 9.35417 7.37091 9.57803 7.09477 9.57803H2.82886C2.55272 9.57803 2.32886 9.35417 2.32886 9.07803V4.81212C2.32886 4.53598 2.55272 4.31212 2.82886 4.31212C3.105 4.31212 3.32886 4.53598 3.32886 4.81212V7.60833C3.8283 6.98169 4.47242 6.21022 5.05878 5.62345C6.30682 4.37456 8.03291 3.60114 9.9387 3.60114C13.7488 3.60114 16.8376 6.68986 16.8376 10.5C16.8376 14.3101 13.7488 17.3989 9.9387 17.3989C6.79279 17.3989 4.13988 15.2936 3.30954 12.4161C3.23298 12.1508 3.386 11.8736 3.65132 11.7971C3.91663 11.7205 4.19378 11.8735 4.27034 12.1388C4.98048 14.5998 7.25015 16.3989 9.9387 16.3989C13.1966 16.3989 15.8376 13.7578 15.8376 10.5C15.8376 7.24215 13.1966 4.60114 9.9387 4.60114Z" fill="current"/>
</svg>
