<svg width="100%" height="100%" viewBox="0 0 20 21" fill="none" xmlns="http://www.w3.org/2000/svg">
<path fill-rule="evenodd" clip-rule="evenodd" d="M9.16667 3.5C5.76091 3.5 3 6.26091 3 9.66667C3 13.0724 5.76091 15.8333 9.16667 15.8333C10.8384 15.8333 12.3548 15.1681 13.4655 14.088C13.4819 14.0646 13.5006 14.0423 13.5214 14.0214C13.5423 14.0006 13.5646 13.9819 13.588 13.9655C14.6681 12.8548 15.3333 11.3384 15.3333 9.66667C15.3333 6.26091 12.5724 3.5 9.16667 3.5ZM14.5755 14.3684C15.6704 13.11 16.3333 11.4657 16.3333 9.66667C16.3333 5.70863 13.1247 2.5 9.16667 2.5C5.20863 2.5 2 5.70863 2 9.66667C2 13.6247 5.20863 16.8333 9.16667 16.8333C10.9657 16.8333 12.61 16.1704 13.8684 15.0755L17.1464 18.3536C17.3417 18.5488 17.6583 18.5488 17.8536 18.3536C18.0488 18.1583 18.0488 17.8417 17.8536 17.6464L14.5755 14.3684Z" fill="current"/>
</svg>
