<svg width="100%" height="100%" viewBox="0 0 20 21" fill="none" xmlns="http://www.w3.org/2000/svg">
<path fill-rule="evenodd" clip-rule="evenodd" d="M10.0001 2.66669C5.67385 2.66669 2.16675 6.17379 2.16675 10.5C2.16675 14.8262 5.67385 18.3334 10.0001 18.3334C14.3263 18.3334 17.8334 14.8262 17.8334 10.5C17.8334 6.17379 14.3263 2.66669 10.0001 2.66669ZM1.16675 10.5C1.16675 5.6215 5.12157 1.66669 10.0001 1.66669C14.8786 1.66669 18.8334 5.6215 18.8334 10.5C18.8334 15.3785 14.8786 19.3334 10.0001 19.3334C5.12157 19.3334 1.16675 15.3785 1.16675 10.5ZM7.14653 7.64647C7.34179 7.4512 7.65837 7.4512 7.85363 7.64647L10.0001 9.79291L12.1465 7.64647C12.3418 7.4512 12.6584 7.4512 12.8536 7.64647C13.0489 7.84173 13.0489 8.15831 12.8536 8.35357L10.7072 10.5L12.8536 12.6465C13.0489 12.8417 13.0489 13.1583 12.8536 13.3536C12.6584 13.5488 12.3418 13.5488 12.1465 13.3536L10.0001 11.2071L7.85363 13.3536C7.65837 13.5488 7.34179 13.5488 7.14653 13.3536C6.95126 13.1583 6.95126 12.8417 7.14653 12.6465L9.29297 10.5L7.14653 8.35357C6.95126 8.15831 6.95126 7.84173 7.14653 7.64647Z" fill="current"/>
</svg>
