<svg width="100%" height="100%" viewBox="0 0 20 20" fill="none" xmlns="http://www.w3.org/2000/svg">
<path d="M4.16671 2.83337C3.43033 2.83337 2.83337 3.43033 2.83337 4.16671C2.83337 4.90309 3.43033 5.50004 4.16671 5.50004C4.90309 5.50004 5.50004 4.90309 5.50004 4.16671C5.50004 3.43033 4.90309 2.83337 4.16671 2.83337Z" fill="current"/>
<path d="M10 2.83337C9.26366 2.83337 8.66671 3.43033 8.66671 4.16671C8.66671 4.90309 9.26366 5.50004 10 5.50004C10.7364 5.50004 11.3334 4.90309 11.3334 4.16671C11.3334 3.43033 10.7364 2.83337 10 2.83337Z" fill="current"/>
<path d="M15.8334 2.83337C15.097 2.83337 14.5 3.43033 14.5 4.16671C14.5 4.90309 15.097 5.50004 15.8334 5.50004C16.5698 5.50004 17.1667 4.90309 17.1667 4.16671C17.1667 3.43033 16.5698 2.83337 15.8334 2.83337Z" fill="current"/>
<path d="M4.16671 8.66671C3.43033 8.66671 2.83337 9.26366 2.83337 10C2.83337 10.7364 3.43033 11.3334 4.16671 11.3334C4.90309 11.3334 5.50004 10.7364 5.50004 10C5.50004 9.26366 4.90309 8.66671 4.16671 8.66671Z" fill="current"/>
<path d="M10 8.66671C9.26366 8.66671 8.66671 9.26366 8.66671 10C8.66671 10.7364 9.26366 11.3334 10 11.3334C10.7364 11.3334 11.3334 10.7364 11.3334 10C11.3334 9.26366 10.7364 8.66671 10 8.66671Z" fill="current"/>
<path d="M15.8334 8.66671C15.097 8.66671 14.5 9.26366 14.5 10C14.5 10.7364 15.097 11.3334 15.8334 11.3334C16.5698 11.3334 17.1667 10.7364 17.1667 10C17.1667 9.26366 16.5698 8.66671 15.8334 8.66671Z" fill="current"/>
<path d="M4.16671 14.5C3.43033 14.5 2.83337 15.097 2.83337 15.8334C2.83337 16.5698 3.43033 17.1667 4.16671 17.1667C4.90309 17.1667 5.50004 16.5698 5.50004 15.8334C5.50004 15.097 4.90309 14.5 4.16671 14.5Z" fill="current"/>
<path d="M10 14.5C9.26366 14.5 8.66671 15.097 8.66671 15.8334C8.66671 16.5698 9.26366 17.1667 10 17.1667C10.7364 17.1667 11.3334 16.5698 11.3334 15.8334C11.3334 15.097 10.7364 14.5 10 14.5Z" fill="current"/>
<path d="M15.8334 14.5C15.097 14.5 14.5 15.097 14.5 15.8334C14.5 16.5698 15.097 17.1667 15.8334 17.1667C16.5698 17.1667 17.1667 16.5698 17.1667 15.8334C17.1667 15.097 16.5698 14.5 15.8334 14.5Z" fill="current"/>
</svg>
