<svg width="100%" height="100%" viewBox="0 0 20 20" fill="none" xmlns="http://www.w3.org/2000/svg">
<path fill-rule="evenodd" clip-rule="evenodd" d="M6.99264 2L13.0066 2C13.6381 2 14.1414 1.99999 14.5496 2.03215C14.9685 2.06515 15.3271 2.13416 15.6609 2.29385C16.2016 2.5526 16.6525 2.96744 16.9552 3.48486C17.1421 3.80417 17.2406 4.15582 17.3083 4.57049C17.3743 4.97467 17.4161 5.47622 17.4685 6.10555L18.0555 13.1491C18.1165 13.8817 18.165 14.463 18.1645 14.9326C18.164 15.4124 18.1137 15.8239 17.947 16.2042C17.679 16.8157 17.2147 17.3204 16.6275 17.6382C16.2624 17.8359 15.8565 17.9202 15.3783 17.9605C14.9104 18 14.3271 18 13.592 18H6.40731C5.67219 18 5.08885 18 4.62093 17.9605C4.14282 17.9202 3.73686 17.8359 3.37176 17.6382C2.7846 17.3204 2.32026 16.8157 2.05225 16.2042C1.88561 15.8239 1.83526 15.4124 1.83478 14.9326C1.83431 14.463 1.88276 13.8816 1.94381 13.1491L2.53078 6.10551C2.58322 5.4762 2.62501 4.97466 2.69096 4.57049C2.75863 4.15582 2.85718 3.80417 3.04403 3.48486C3.3468 2.96744 3.79765 2.5526 4.33842 2.29384C4.67215 2.13416 5.03077 2.06515 5.44963 2.03215C5.85788 1.99999 6.36115 2 6.99264 2ZM5.52816 3.02906C5.16991 3.05729 4.94807 3.11071 4.77005 3.1959C4.40953 3.3684 4.10897 3.64496 3.90712 3.9899C3.80745 4.16024 3.73578 4.37688 3.67791 4.73154C3.61904 5.09228 3.58016 5.55455 3.52559 6.20934L2.94226 13.2093C2.87889 13.9698 2.83436 14.5091 2.83478 14.9316C2.8352 15.3486 2.88062 15.603 2.96816 15.8028C3.14683 16.2105 3.45639 16.5469 3.84783 16.7588C4.03963 16.8626 4.28937 16.929 4.70497 16.9641C5.12593 16.9996 5.66709 17 6.43017 17H13.5691C14.3322 17 14.8733 16.9996 15.2943 16.9641C15.7099 16.929 15.9597 16.8626 16.1514 16.7588C16.5429 16.5469 16.8524 16.2105 17.0311 15.8028C17.1187 15.603 17.1641 15.3486 17.1645 14.9316C17.1649 14.5091 17.1204 13.9698 17.057 13.2093L16.4737 6.20934C16.4191 5.55455 16.3802 5.09228 16.3214 4.73155C16.2635 4.37688 16.1918 4.16024 16.0922 3.9899C15.8903 3.64496 15.5897 3.3684 15.2292 3.1959C15.0512 3.11071 14.8294 3.05729 14.4711 3.02907C14.1067 3.00036 13.6428 3 12.9858 3L7.0135 3C6.35644 3 5.89254 3.00036 5.52816 3.02906ZM6.6663 6.16667C6.94245 6.16667 7.1663 6.39052 7.1663 6.66667C7.1663 7.41811 7.46481 8.13878 7.99617 8.67014C8.52752 9.20149 9.24819 9.5 9.99964 9.5C10.7511 9.5 11.4718 9.20149 12.0031 8.67014C12.5345 8.13878 12.833 7.41811 12.833 6.66667C12.833 6.39052 13.0568 6.16667 13.333 6.16667C13.6091 6.16667 13.833 6.39052 13.833 6.66667C13.833 7.68333 13.4291 8.65835 12.7102 9.37724C11.9913 10.0961 11.0163 10.5 9.99964 10.5C8.98297 10.5 8.00795 10.0961 7.28906 9.37724C6.57017 8.65835 6.1663 7.68333 6.1663 6.66667C6.1663 6.39052 6.39016 6.16667 6.6663 6.16667Z" fill="current"/>
</svg>
